# xmcd
#
# Track frame offsets: 
#        150
#        14847
#        23857
#        29971
#        41521
#        48993
#        56484
#        74138
#        78609
#        88628
#        98283
#        101801
#        106674
#        113504
#        125412
#        131980
#        150170
#        166829
#        176398
#        187127
#        193479
#        206141
#        214226
#        221845
#        230394
#        236768
#        246761
#        250337
#        257197
#        263882
#        270203
#        283652
#
# Disc length: 3973 seconds
#
# Revision: 0
# Processed by: cddbd v1.5.2PL0 Copyright (c) Steve Scherf et al.
# Submitted via: ExactAudioCopy v0.95b4
#
DISCID=dd0f8320
DTITLE=Старообрядцы сёл Покровка (Молдавия) и Грубна (Украина) - Ты ле
DTITLE=ти, стрела
DYEAR=2003
DGENRE=Folklore
TTITLE0=Ты лети, стрела
TTITLE1=Долина, долинушка
TTITLE2=Ты утушка луговая
TTITLE3=Завеют снежочки
TTITLE4=Написали нам записочку
TTITLE5=Шагом, шагом на гору
TTITLE6=А туда гора
TTITLE7=Тятенька и маменька
TTITLE8=Посадила ж она красных девушек
TTITLE9=Как вышла тая Настасьюшка
TTITLE10=Что с-под груши
TTITLE11=Благодарим, Иван сударь
TTITLE12=А я вчора и з вечора
TTITLE13=Христос рождается
TTITLE14=Воскресения день просветимся
TTITLE15=Христос рождается
TTITLE16=И ныне и присно
TTITLE17=Воскресения день
TTITLE18=Из-за лесу, лесу тёмного
TTITLE19=Уж и кто у нас приезжий гость
TTITLE20=Ой не в трубушку трубило
TTITLE21=Зелёная моя вишенка
TTITLE22=Не две горы сокатился
TTITLE23=Наливная чарочка
TTITLE24=Соезжала она красна девочка
TTITLE25=Не чаяла маменька
TTITLE26=Кто частушек много знает
TTITLE27=Ты лет, стрела
TTITLE28=Василь ты мой, василёчек
TTITLE29=По горам, горам
TTITLE30=Там и в полю
TTITLE31=Ой да не туман с моря
EXTD=
EXTT0=
EXTT1=
EXTT2=
EXTT3=
EXTT4=
EXTT5=
EXTT6=
EXTT7=
EXTT8=
EXTT9=
EXTT10=
EXTT11=
EXTT12=
EXTT13=
EXTT14=
EXTT15=
EXTT16=
EXTT17=
EXTT18=
EXTT19=
EXTT20=
EXTT21=
EXTT22=
EXTT23=
EXTT24=
EXTT25=
EXTT26=
EXTT27=
EXTT28=
EXTT29=
EXTT30=
EXTT31=
PLAYORDER=
